<svg viewBox="0 0 620 640" fill="none" xmlns="http://www.w3.org/2000/svg">
  <!-- Left outer arm -->
  <line x1="138" y1="88" x2="298" y2="548" stroke="#1a75d2" stroke-width="22" stroke-linecap="round"/>
  <!-- Left inner arm -->
  <line x1="182" y1="148" x2="298" y2="548" stroke="#1a75d2" stroke-width="22" stroke-linecap="round"/>
  <!-- Cross brace on left -->
  <line x1="138" y1="88" x2="182" y2="148" stroke="#1a75d2" stroke-width="18" stroke-linecap="round"/>
  <line x1="155" y1="200" x2="200" y2="255" stroke="#1a75d2" stroke-width="18" stroke-linecap="round"/>

  <!-- Right outer arm -->
  <line x1="490" y1="104" x2="322" y2="548" stroke="#1a75d2" stroke-width="22" stroke-linecap="round"/>
  <!-- Right inner arm -->
  <line x1="448" y1="172" x2="322" y2="548" stroke="#1a75d2" stroke-width="22" stroke-linecap="round"/>
  <!-- Cross brace on right -->
  <line x1="490" y1="104" x2="448" y2="172" stroke="#1a75d2" stroke-width="18" stroke-linecap="round"/>
  <line x1="462" y1="224" x2="420" y2="272" stroke="#1a75d2" stroke-width="18" stroke-linecap="round"/>

  <!-- Bottom junction lines -->
  <line x1="278" y1="530" x2="322" y2="530" stroke="#1a75d2" stroke-width="18" stroke-linecap="round"/>

  <!-- === NODES === -->
  <!-- Top-left large dot -->
  <circle cx="138" cy="88" r="28" fill="#1a75d2"/>
  <!-- Left arm mid-upper small dot -->
  <circle cx="162" cy="150" r="17" fill="#1a75d2"/>
  <!-- Left arm mid dot -->
  <circle cx="180" cy="200" r="15" fill="#1a75d2"/>
  <!-- Left arm lower dot -->
  <circle cx="200" cy="258" r="14" fill="#1a75d2"/>

  <!-- Top-right large dot (biggest) -->
  <circle cx="492" cy="100" r="42" fill="#1a75d2"/>
  <!-- Right arm upper-mid dot -->
  <circle cx="455" cy="172" r="18" fill="#1a75d2"/>
  <!-- Right arm mid dot -->
  <circle cx="430" cy="222" r="15" fill="#1a75d2"/>
  <!-- Right arm lower dot -->
  <circle cx="406" cy="272" r="14" fill="#1a75d2"/>

  <!-- Bottom junction — left dot -->
  <circle cx="278" cy="528" r="18" fill="#1a75d2"/>
  <!-- Bottom junction — right dot -->
  <circle cx="330" cy="532" r="18" fill="#1a75d2"/>
  <!-- Bottom center large dot -->
  <circle cx="308" cy="566" r="34" fill="#1a75d2"/>
</svg>
